<svg id="Layer_5" enable-background="new 0 0 64 64" height="512" viewBox="0 0 64 64" width="512" xmlns="http://www.w3.org/2000/svg"><g><g><g><path d="m50 17-6 6-6 6-6-6-3-3-7.95 7.95c.53 1.44.95 3.17.95 5.05l-3 1v.59c0 .9-.36 1.77-1 2.41-.54.54-1.25.88-2 .97v3.03c1.26.5 2.34 1.31 3.17 2.31l2.43-.88c.15-.43.33-.85.53-1.26l-.74-1.53 4.25-4.25 1.53.74c.41-.2.83-.38 1.26-.53l.57-1.6h3 3l.57 1.6c.43.15.85.33 1.26.53l1.17-.56v-.01l.36-.17 4.25 4.25-.74 1.53c.2.41.38.83.53 1.26l1.6.57v6l-1.6.57c-.15.43-.33.85-.53 1.26l.74 1.53-4.25 4.25-.36-.17v-.01l-1.17-.56c-.41.2-.83.38-1.26.53l-.57 1.6h-4v2.01c0 1.1-.89 1.99-1.99 1.99h8.99 6 6 6v-51z" fill="#ccd1d9"/></g><g><path d="m62 2-2 12-3.5-3.5-.5.5-6 6-6 6-6 6-6-6-3-3-7.95 7.95c-.88-2.39-2.05-3.95-2.05-3.95 2.21 0 4-1.79 4-4l6-6 9 9 15.5-15.5-3.5-3.5z" fill="#ff826e"/></g><g><path d="m44 43v6l-1.6.57c-.15.43-.33.85-.53 1.26l.74 1.53-4.25 4.25-.36-.17v-.01l-1.17-.56c-.41.2-.83.38-1.26.53l-.57 1.6h-4c0-1.1-.9-2-2-2h-1l-.46-.93c-.33-.66-1-1.07-1.74-1.07-.51 0-1 .2-1.37.57l-1.43 1.43h-2v-7.61c0-1.63-.5-3.17-1.37-4.46-.15-.21-.3-.42-.46-.62l2.43-.88c.15-.43.33-.85.53-1.26l-.74-1.53 4.25-4.25 1.53.74c.41-.2.83-.38 1.26-.53l.57-1.6h3 3l.57 1.6c.43.15.85.33 1.26.53l1.17-.56v-.01l.36-.17 4.25 4.25-.74 1.53c.2.41.38.83.53 1.26zm-5 3c0-3.87-3.13-7-7-7s-7 3.13-7 7 3.13 7 7 7 7-3.13 7-7z" fill="#ffc729"/></g><g><path d="m32 39c3.87 0 7 3.13 7 7s-3.13 7-7 7-7-3.13-7-7 3.13-7 7-7zm3 7c0-1.66-1.34-3-3-3s-3 1.34-3 3 1.34 3 3 3 3-1.34 3-3z" fill="#fcd770"/></g><g><path d="m31 58v2.01c0 1.1-.89 1.99-1.99 1.99h-2.01c-1.25 0-2.61 0-4 0v-6l1.43-1.43c.37-.37.86-.57 1.37-.57.74 0 1.41.41 1.74 1.07l.46.93h1c1.1 0 2 .9 2 2z" fill="#f0d0b4"/></g><g><path d="m11 56.03c.14-.02.27-.03.41-.03h9.59 2v6c-5.03 0-10.53 0-12.88 0-1.36 0-2.66-.54-3.63-1.51l-.04-.04c-.93-.93-1.45-2.19-1.45-3.51v-11.88c0-1.39.48-2.71 1.31-3.75l1.67.96c1.87 1.07 3.02 3.06 3.02 5.21v8.52z" fill="#b4dd7f"/></g><g><path d="m16.36 17c.71-.62 1.63-1 2.64-1 2.21 0 4 1.79 4 4s-1.79 4-4 4h-2-5c-1.1 0-2 .9-2 2v2c-.55 0-1.05.22-1.41.59-.37.36-.59.86-.59 1.41v.17c0 .53.21 1.04.59 1.42l.82.82c.38.38.59.89.59 1.42v5.17l-3.73-2.8c-1.35-1-2.41-2.3-3.14-3.76s-1.13-3.1-1.13-4.77c0-5.89 4.78-10.67 10.67-10.67z" fill="#656d78"/></g><g><path d="m16 37.97v3.03l-2 2-4-4v-5.17c0-.53-.21-1.04-.59-1.42l-.82-.82c-.38-.38-.59-.89-.59-1.42v-.17c0-.55.22-1.05.59-1.41.36-.37.86-.59 1.41-.59v-2c0-1.1.9-2 2-2h5 2s1.17 1.56 2.05 3.95c.53 1.44.95 3.17.95 5.05l-3 1v.59c0 .9-.36 1.77-1 2.41-.54.54-1.25.88-2 .97z" fill="#f0d0b4"/></g><g><path d="m21 48.39v7.61h-9.59c-.14 0-.27.01-.41.03v-.03-8.52c0-2.15-1.15-4.14-3.02-5.21l-1.67-.96c.64-.8 1.48-1.43 2.46-1.82l1.23-.49 4 4 2-2c1.26.5 2.34 1.31 3.17 2.31.16.2.31.41.46.62.87 1.29 1.37 2.83 1.37 4.46z" fill="#b4dd7f"/></g></g><g><circle cx="17" cy="28" r="1"/><path d="m32 54c4.411 0 8-3.589 8-8s-3.589-8-8-8-8 3.589-8 8 3.589 8 8 8zm0-14c3.309 0 6 2.691 6 6s-2.691 6-6 6-6-2.691-6-6 2.691-6 6-6z"/><path d="m32 50c2.206 0 4-1.794 4-4s-1.794-4-4-4-4 1.794-4 4 1.794 4 4 4zm0-6c1.103 0 2 .897 2 2s-.897 2-2 2-2-.897-2-2 .897-2 2-2z"/><path d="m63.217.784-15.298 2.549 4.167 4.167-14.086 14.086-9-9-5.42 5.42c-.773-1.766-2.532-3.006-4.58-3.006-1.116 0-2.136.38-2.969 1h-3.364c-6.434 0-11.667 5.233-11.667 11.667 0 3.652 1.744 7.141 4.667 9.333l2.34 1.755c-2.441 1.156-4.007 3.576-4.007 6.307l-.001 11.878c0 1.595.621 3.094 1.786 4.26 1.162 1.161 2.7 1.8 4.331 1.8h18.897 27.987v-50.586l3.667 3.667zm-60.217 26.883c0-5.331 4.337-9.667 9.667-9.667h1.757c-.27.614-.424 1.288-.424 2h2c0-1.654 1.346-3 3-3s3 1.346 3 3-1.346 3-3 3h-2-5c-1.654 0-3 1.346-3 3v1.171c-1.164.413-2 1.525-2 2.829v.171c0 .801.313 1.555.879 2.122l.828.828c.189.189.293.441.293.708v3.172l-2.134-1.6c-2.421-1.817-3.866-4.708-3.866-7.734zm24 33.333h-3v-4.586l1.14-1.14c.427-.428 1.231-.297 1.501.244l.741 1.482h1.618c.552 0 1 .449 1 1v2.009c0 .547-.442.991-.986.991zm-18.52-19.597-.525-.301c.358-.274.752-.509 1.187-.682l.617-.247 4.241 4.241 2.204-2.204c2.319 1.182 3.796 3.532 3.796 6.175v6.615h-8v-7.523c0-2.502-1.349-4.83-3.52-6.074zm7.106-4.403h-2.586v2h2v1.586l-1 1-3-3v-4.757c0-.801-.313-1.555-.879-2.122l-.828-.828c-.189-.189-.293-.441-.293-.708v-.171c0-.551.448-1 1-1h1v-3c0-.551.448-1 1-1h5 1.473c.659 1.016 2.298 3.86 2.506 7.287l-2.979.992v1.307c0 .645-.251 1.251-.707 1.707s-1.063.707-1.707.707zm7.015 2.843 3.242-3.242 1.335.638.436-.214c.375-.185.761-.345 1.146-.477l.458-.157.49-1.391h4.584l.491 1.392.458.157c.385.132.771.292 1.146.477l.436.214 1.335-.638 3.242 3.242-.639 1.334.214.435c.187.381.347.766.477 1.146l.156.458 1.392.491v4.585l-1.393.491-.156.458c-.13.38-.29.765-.477 1.146l-.214.435.639 1.334-3.242 3.242-1.335-.638-.436.214c-.375.185-.761.345-1.146.477l-.458.157-.49 1.391h-2.476c-.414-1.161-1.514-2-2.816-2h-.382l-.188-.376c-.501-1.002-1.508-1.624-2.627-1.624-.773 0-1.53.313-2.077.86l-1.14 1.14h-.586v-6.615c0-1.658-.458-3.226-1.263-4.58l1.655-.592.156-.456c.13-.38.29-.765.477-1.146l.214-.435zm20.399 11.027-.022-.047c.008-.018.015-.036.022-.054zm0-9.639c-.008-.018-.015-.036-.022-.054l.022-.047zm-11 18.778v-1.009h3.708l.644-1.826c.158-.062.315-.127.471-.196l.177.085v3.937h-5.182c.111-.312.182-.642.182-.991zm7-2.624 4-4.001v7.616h-4zm6-7.677v-7.415-18.879l4-4v41.586h-4zm-2-11.092-4-4.001v-5.201l4-4zm-6-3.679-.178.085c-.155-.069-.313-.134-.471-.196l-.643-1.826h-2.708v-7.586l4 4zm-6-1.937h-2.708l-.644 1.826c-.158.062-.315.127-.471.196l-1.749-.836-5.242 5.244.836 1.748c-.07.158-.136.315-.197.473l-1.378.493c-.701-.717-1.514-1.336-2.447-1.793v-1.601c.633-.214 1.22-.556 1.707-1.042.802-.801 1.257-1.857 1.291-2.986l3.002-1v-.722c0-1.756-.343-3.382-.802-4.784l6.802-6.802 2 2zm-23.838 26.748c-.75-.75-1.163-1.748-1.163-2.808l.001-11.878c0-.87.231-1.691.63-2.414l.856.491c1.551.888 2.514 2.55 2.514 4.338v7.774c-.633.214-1.22.556-1.707 1.042l1.414 1.415c.456-.457 1.063-.708 1.707-.708h10.586v4h-11.884c-1.096 0-2.133-.431-2.954-1.252zm43.838 1.252v-43.586l4-4v47.586zm5.5-51.914-18.5 18.5-9-9-7.6 7.6c-.265-.573-.529-1.072-.766-1.483 1.811-.632 3.135-2.266 3.319-4.242l5.047-5.047 9 9 16.914-16.914-2.833-2.833 8.702-1.451-1.45 8.703z"/></g></g></svg>