<svg id="Layer_5" enable-background="new 0 0 64 64" height="512" viewBox="0 0 64 64" width="512" xmlns="http://www.w3.org/2000/svg"><g><path d="m60.347 22.388c-.361-1.286-.874-2.521-1.526-3.685l1.244-2.509-5.259-5.258-2.509 1.244c-1.164-.653-2.399-1.165-3.685-1.527l-.893-2.653h-7.438l-.894 2.653c-.222.062-.433.154-.651.226-3.263-6.025-9.658-9.879-16.544-9.879h-21.191v6.999c-.001 1.87.728 3.628 2.05 4.951.556.556 1.192 1 1.878 1.336l-2.328 12.422c-.378 2.013.632 4.021 2.399 4.949v4.807c0 4.156 3.38 7.536 7.535 7.536.355 0 .715-.025 1.066-.076l1.398-.2v5.532l-.667.2c-5.581 1.675-9.332 6.716-9.332 12.544v1h36v-1c0-6.921-4.647-13.083-11.303-14.983l-2.697-.771v-3.553c1.346-.53 2.632-1.197 3.846-1.977l2.348 2.348 2.509-1.244c1.164.653 2.399 1.165 3.685 1.527l.893 2.653h7.438l.894-2.653c1.285-.362 2.521-.874 3.685-1.527l2.509 1.244 5.259-5.258-1.244-2.509c.652-1.164 1.165-2.398 1.526-3.685l2.652-.894v-7.437zm-55.882-10.852c-.944-.945-1.464-2.201-1.464-3.536v-5h19.191c6.073 0 11.722 3.352 14.674 8.615-.391.181-.786.353-1.163.565l-2.509-1.244-5.259 5.258 1.244 2.509c-.652 1.164-1.165 2.398-1.526 3.685l-.653.22v-4.608c0-2.757-2.243-5-5-5h-2-12.004c-1.334-.002-2.588-.521-3.531-1.464zm17.535 3.464c1.302 0 2.402.839 2.816 2h-18.361l.375-2h1.161.01 2.999 9zm3 4v4.282 1.718h-20.045l1.125-6zm-11.773 33.029c.491.545.773 1.235.773 1.971 0 1.654-1.346 3-3 3-.869 0-1.66-.39-2.225-1.038 1.08-1.669 2.603-3.038 4.452-3.933zm11.874 8.971c.465-2.279 2.484-4 4.899-4s4.434 1.721 4.899 4zm13.84 0h-2.021c-.488-3.387-3.401-6-6.92-6s-6.432 2.613-6.92 6h-2.021c.499-4.493 4.316-8 8.941-8s8.442 3.507 8.941 8zm-9.793-12.061c2.087.596 3.946 1.676 5.473 3.092-1.407-.655-2.969-1.031-4.621-1.031-5.728 0-10.442 4.402-10.949 10h-12.007c.098-1.111.359-2.178.76-3.177.884.748 1.999 1.177 3.196 1.177 2.757 0 5-2.243 5-5 0-.979-.287-1.914-.811-2.712l10.818-3.246zm-3.485-7.881-.663.237v4.961l-8 2.4v-5.218l3.142-.449-.283-1.979-6.54.934c-.26.037-.522.056-.784.056-3.052 0-5.535-2.483-5.535-5.536v-6.185l-.684-.228c-1.238-.413-1.991-1.692-1.751-2.975l.015-.076h20.42v3.718l2.653.894c.361 1.286.874 2.521 1.526 3.685l-1.244 2.509 1.463 1.463c-1.178.72-2.428 1.322-3.735 1.789zm35.337-11.776-2.322.782-.131.533c-.361 1.463-.938 2.857-1.718 4.144l-.284.47 1.09 2.196-3.228 3.227-2.196-1.09-.47.285c-1.288.779-2.683 1.357-4.145 1.717l-.533.132-.782 2.322h-4.563l-.782-2.322-.533-.132c-1.462-.36-2.856-.938-4.145-1.717l-.47-.285-2.196 1.09-3.228-3.227 1.09-2.196-.284-.47c-.779-1.287-1.356-2.681-1.718-4.144l-.131-.533-2.321-.782v-4.282-.282l2.322-.782.131-.533c.361-1.463.938-2.857 1.718-4.144l.284-.47-1.09-2.196 3.228-3.227 2.196 1.09.47-.285c1.288-.779 2.683-1.357 4.145-1.717l.533-.132.782-2.322h4.563l.782 2.322.533.132c1.462.36 2.856.938 4.145 1.717l.47.285 2.196-1.09 3.228 3.227-1.09 2.196.284.47c.779 1.287 1.356 2.681 1.718 4.144l.131.533 2.321.782z"/><path d="m35 23h2v8h-2z"/><path d="m39 23h2v8h-2z"/><path d="m43 31h6v-8h-6zm2-6h2v4h-2z"/><path d="m51 23h2v8h-2z"/><path d="m52 54c-1.302 0-2.402.839-2.816 2h-4.184v-8h-2v10h6.184c.414 1.161 1.514 2 2.816 2 1.654 0 3-1.346 3-3s-1.346-3-3-3zm0 4c-.552 0-1-.449-1-1s.448-1 1-1 1 .449 1 1-.448 1-1 1z"/><path d="m60 48c-1.302 0-2.402.839-2.816 2h-5.184v-5h-2v7h7.184c.414 1.161 1.514 2 2.816 2 1.654 0 3-1.346 3-3s-1.346-3-3-3zm0 4c-.552 0-1-.449-1-1s.448-1 1-1 1 .449 1 1-.448 1-1 1z"/></g></svg>